<svg width="24" height="20" viewBox="0 0 24 20" fill="none" xmlns="http://www.w3.org/2000/svg">
<path d="M15.7007 14.7309V3.0985C15.7007 2.15172 14.9332 1.38422 13.9864 1.38422H2.91838C1.97162 1.38422 1.2041 2.15172 1.2041 3.0985V14.4568C1.2041 15.4036 1.97162 16.171 2.91838 16.171H4.2041M22.7959 9.49694H15.7031M20.489 15.8512H21.0799C22.0267 15.8512 22.7942 15.0837 22.7942 14.1369V8.9924L20.4072 4.10522C20.1197 3.5166 19.5219 3.14328 18.8667 3.14328H16.0099M14.7037 16.1707H9.66797M4.28914 16.2226C4.28914 16.8573 4.54128 17.4661 4.99008 17.9149C5.43888 18.3637 6.04758 18.6158 6.68229 18.6158C7.31699 18.6158 7.92569 18.3637 8.37449 17.9149C8.82329 17.4661 9.07543 16.8573 9.07543 16.2226C9.07543 15.5879 8.82329 14.9792 8.37449 14.5304C7.92569 14.0816 7.31699 13.8295 6.68229 13.8295C6.04758 13.8295 5.43888 14.0816 4.99008 14.5304C4.54128 14.9792 4.28914 15.5879 4.28914 16.2226ZM15.1526 16.2226C15.1526 16.8573 15.4047 17.4661 15.8535 17.9149C16.3023 18.3637 16.911 18.6158 17.5457 18.6158C18.1804 18.6158 18.7891 18.3637 19.2379 17.9149C19.6867 17.4661 19.9389 16.8573 19.9389 16.2226C19.9389 15.5879 19.6867 14.9792 19.2379 14.5304C18.7891 14.0816 18.1804 13.8295 17.5457 13.8295C16.911 13.8295 16.3023 14.0816 15.8535 14.5304C15.4047 14.9792 15.1526 15.5879 15.1526 16.2226Z" stroke="#0E1422" stroke-width="1.71429" stroke-linecap="round" stroke-linejoin="round"/>
</svg>
