<svg width="20" height="20" viewBox="0 0 20 20" fill="none" xmlns="http://www.w3.org/2000/svg">
<path d="M4.05174 11.2695L1 16.5764L4.29748 15.6893L5.18103 19L7.82887 14.3955M15.9483 11.2695L19 16.5764L15.7025 15.6893L14.819 19L12.1712 14.3955M16.8587 7.88992C16.8587 11.6951 13.7862 14.7799 9.99621 14.7799C6.20619 14.7799 3.13379 11.6951 3.13379 7.88992C3.13379 4.08472 6.20619 1 9.99621 1C13.7862 1 16.8587 4.08472 16.8587 7.88992ZM10.277 4.14906L11.2223 6.05825C11.2434 6.10653 11.277 6.14832 11.3194 6.17934C11.3619 6.21036 11.4119 6.2295 11.4641 6.23481L13.5635 6.55486C13.6236 6.5627 13.6801 6.58754 13.7266 6.62646C13.7731 6.66539 13.8076 6.7168 13.826 6.77467C13.8444 6.83256 13.8461 6.89452 13.8308 6.95329C13.8154 7.01208 13.7837 7.06527 13.7394 7.10664L12.1896 8.58543C12.1665 8.6297 12.1544 8.67892 12.1544 8.7289C12.1544 8.77887 12.1665 8.8281 12.1896 8.87236L12.4864 10.9692C12.499 11.0298 12.4939 11.0928 12.4716 11.1505C12.4493 11.2082 12.4108 11.2582 12.3608 11.2945C12.3108 11.3307 12.2513 11.3515 12.1897 11.3545C12.1281 11.3575 12.067 11.3425 12.0137 11.3113L10.1451 10.318C10.0968 10.2961 10.0443 10.2848 9.99124 10.2848C9.93816 10.2848 9.88571 10.2961 9.83735 10.318L7.96876 11.3113C7.9155 11.3425 7.85434 11.3575 7.79273 11.3545C7.73113 11.3515 7.6717 11.3307 7.62168 11.2945C7.57164 11.2582 7.53315 11.2082 7.51087 11.1505C7.48857 11.0928 7.48345 11.0298 7.49612 10.9692L7.84786 8.87236C7.86298 8.82369 7.86587 8.77202 7.85629 8.72196C7.84669 8.6719 7.82491 8.625 7.79289 8.58543L6.24307 7.0956C6.20196 7.0538 6.1731 7.00143 6.15966 6.94426C6.14623 6.88706 6.14873 6.82727 6.1669 6.77143C6.18505 6.71559 6.21818 6.66583 6.26263 6.62763C6.30709 6.58943 6.36116 6.56425 6.41893 6.55486L8.51835 6.24585C8.57061 6.24054 8.62053 6.2214 8.66302 6.19038C8.7055 6.15935 8.73903 6.11756 8.76016 6.06928L9.70545 4.1601C9.73075 4.10605 9.7706 4.06019 9.8205 4.0277C9.87039 3.99521 9.92835 3.97737 9.98782 3.97622C10.0473 3.97508 10.1059 3.99065 10.157 4.02121C10.2081 4.05175 10.2497 4.09604 10.277 4.14906Z" stroke="#0E1422" stroke-width="1.43" stroke-linecap="round" stroke-linejoin="round"/>
</svg>
