<svg width="16" height="26" viewBox="0 0 16 26" fill="none" xmlns="http://www.w3.org/2000/svg">
<path d="M12.4769 4.34848L6.20402 0.555028C5.61195 0.192858 4.93884 0.00143753 4.25319 0.000244141C2.20945 0.000244141 0.334752 1.71219 0.334752 4.10496V18.3073L12.4769 10.9669C14.9083 9.49459 14.9083 5.8199 12.4769 4.34848ZM3.84837 11.4479V3.86787L10.1163 7.6566L3.84837 11.4479Z" fill="#0E1422"/>
<path d="M15.8489 25.9844C15.8489 26.0273 3.99081 25.966 3.99081 25.966L2.94336 25.8425C1.24672 25.644 -0.0557464 24.1232 0.00196809 22.3346C0.00196809 22.2917 0.00565199 22.2518 0.00810792 22.2102C0.0547076 21.4364 0.326076 20.6961 0.78582 20.0884C0.972526 19.8461 1.20091 19.6425 1.45916 19.4882L10.4782 14.0724C12.3414 12.9534 13.8931 12.562 14.6999 10.534C14.9974 9.77562 15.126 8.95611 15.0757 8.13784L15.0446 7.58649L15.9651 12.9204C16.083 13.8263 15.9013 14.7537 15.4211 15.5168C15.1326 15.9784 14.7475 16.3652 14.2951 16.6478L3.82954 21.8943C3.81908 21.9005 3.80897 21.9074 3.79925 21.9148C3.51273 22.1292 3.68955 22.6068 4.04034 22.5867L12.7515 22.6402C14.4433 22.5416 15.8526 24.2111 15.8489 25.9844Z" fill="#0E1422"/>
</svg>
