<svg width="18" height="18" viewBox="0 0 18 18" fill="none" xmlns="http://www.w3.org/2000/svg">
<path d="M12.7272 5.27901L7.76327 10.8604L5.28131 8.99994M9.44305 16.9176C9.15791 17.0275 8.84204 17.0275 8.5569 16.9176C6.33201 16.0638 4.41857 14.5557 3.06934 12.5921C1.7201 10.6287 0.998559 8.30235 1 5.92041V2.2301C1 1.90386 1.12967 1.59097 1.36048 1.36029C1.5913 1.1296 1.90435 1 2.23077 1H15.7692C16.0956 1 16.4087 1.1296 16.6395 1.36029C16.8703 1.59097 17 1.90386 17 2.2301V5.92041C17.0014 8.30235 16.2799 10.6287 14.9307 12.5921C13.5814 14.5557 11.6679 16.0638 9.44305 16.9176Z" stroke="#0E1422" stroke-width="1.43" stroke-linecap="round" stroke-linejoin="round"/>
</svg>
