<svg width="20" height="19" viewBox="0 0 20 19" fill="none" xmlns="http://www.w3.org/2000/svg">
<path fill-rule="evenodd" clip-rule="evenodd" d="M7.11604 4.58299C7.88092 3.81812 8.91831 3.38842 10 3.38842C11.0817 3.38842 12.1191 3.81812 12.884 4.58299C13.6488 5.34787 14.0785 6.38525 14.0785 7.46695C14.0785 8.54864 13.6488 9.58603 12.884 10.3509C12.1191 11.1158 11.0817 11.5455 10 11.5455C8.91831 11.5455 7.88092 11.1158 7.11604 10.3509C6.35117 9.58603 5.92147 8.54864 5.92147 7.46695C5.92147 6.38525 6.35117 5.34787 7.11604 4.58299ZM10 4.76864C9.28436 4.76864 8.59804 5.05292 8.09201 5.55895C7.58597 6.06498 7.30169 6.75131 7.30169 7.46695C7.30169 8.18258 7.58597 8.86891 8.09201 9.37494C8.59804 9.88097 9.28436 10.1653 10 10.1653C10.7156 10.1653 11.402 9.88097 11.908 9.37494C12.414 8.86891 12.6983 8.18258 12.6983 7.46695C12.6983 6.75131 12.414 6.06498 11.908 5.55895C11.402 5.05292 10.7156 4.76864 10 4.76864Z" fill="#5C5F6A"/>
<path fill-rule="evenodd" clip-rule="evenodd" d="M10 13.5804C8.95587 13.5804 7.9293 13.849 7.01897 14.3603C6.10864 14.8717 5.34516 15.6087 4.80193 16.5003C4.60364 16.8258 4.17902 16.9289 3.85353 16.7307C3.52804 16.5324 3.42493 16.1077 3.62323 15.7823C4.28964 14.6884 5.22624 13.7843 6.343 13.157C7.45975 12.5297 8.71911 12.2002 10 12.2002C11.2809 12.2002 12.5402 12.5297 13.657 13.157C14.7738 13.7843 15.7104 14.6884 16.3768 15.7823C16.5751 16.1077 16.472 16.5324 16.1465 16.7307C15.821 16.9289 15.3964 16.8258 15.1981 16.5003C14.6548 15.6087 13.8914 14.8717 12.981 14.3603C12.0707 13.849 11.0441 13.5804 10 13.5804Z" fill="#5C5F6A"/>
<path fill-rule="evenodd" clip-rule="evenodd" d="M3.28249 2.78249C5.06408 1.00089 7.48044 0 10 0C12.5196 0 14.9359 1.00089 16.7175 2.78249C18.4991 4.56408 19.5 6.98044 19.5 9.5C19.5 12.0196 18.4991 14.4359 16.7175 16.2175C14.9359 17.9991 12.5196 19 10 19C7.48044 19 5.06408 17.9991 3.28249 16.2175C1.50089 14.4359 0.5 12.0196 0.5 9.5C0.5 6.98044 1.50089 4.56408 3.28249 2.78249ZM10 1.38022C7.8465 1.38022 5.7812 2.23569 4.25845 3.75845C2.73569 5.2812 1.88022 7.3465 1.88022 9.5C1.88022 11.6535 2.73569 13.7188 4.25845 15.2416C5.7812 16.7643 7.8465 17.6198 10 17.6198C12.1535 17.6198 14.2188 16.7643 15.7416 15.2416C17.2643 13.7188 18.1198 11.6535 18.1198 9.5C18.1198 7.3465 17.2643 5.2812 15.7416 3.75845C14.2188 2.23569 12.1535 1.38022 10 1.38022Z" fill="#5C5F6A"/>
</svg>
